<svg width="20" height="12" viewBox="0 0 20 12" fill="none" xmlns="http://www.w3.org/2000/svg">
<path d="M7.99501 0C7.7298 0 7.47544 0.105357 7.28791 0.292893C7.10037 0.48043 6.99501 0.734784 6.99501 1V5H3.40501L4.20501 4.21C4.39332 4.0217 4.49911 3.7663 4.49911 3.5C4.49911 3.2337 4.39332 2.9783 4.20501 2.79C4.01671 2.6017 3.76132 2.49591 3.49501 2.49591C3.22871 2.49591 2.97332 2.6017 2.78501 2.79L0.285014 5.29C0.193973 5.3851 0.122608 5.49725 0.0750135 5.62C-0.0250045 5.86346 -0.0250045 6.13654 0.0750135 6.38C0.122608 6.50275 0.193973 6.6149 0.285014 6.71L2.78501 9.21C2.87798 9.30373 2.98858 9.37812 3.11044 9.42889C3.2323 9.47966 3.363 9.5058 3.49501 9.5058C3.62703 9.5058 3.75773 9.47966 3.87959 9.42889C4.00145 9.37812 4.11205 9.30373 4.20501 9.21C4.29874 9.11704 4.37314 9.00644 4.4239 8.88458C4.47467 8.76272 4.50081 8.63201 4.50081 8.5C4.50081 8.36799 4.47467 8.23728 4.4239 8.11542C4.37314 7.99356 4.29874 7.88296 4.20501 7.79L3.40501 7H6.99501V11C6.99501 11.2652 7.10037 11.5196 7.28791 11.7071C7.47544 11.8946 7.7298 12 7.99501 12C8.26023 12 8.51458 11.8946 8.70212 11.7071C8.88966 11.5196 8.99501 11.2652 8.99501 11V1C8.99501 0.734784 8.88966 0.48043 8.70212 0.292893C8.51458 0.105357 8.26023 0 7.99501 0ZM19.915 5.62C19.8674 5.49725 19.7961 5.3851 19.705 5.29L17.205 2.79C17.1118 2.69676 17.0011 2.6228 16.8793 2.57234C16.7574 2.52188 16.6269 2.49591 16.495 2.49591C16.2287 2.49591 15.9733 2.6017 15.785 2.79C15.6918 2.88324 15.6178 2.99393 15.5674 3.11575C15.5169 3.23757 15.4909 3.36814 15.4909 3.5C15.4909 3.7663 15.5967 4.0217 15.785 4.21L16.585 5H12.995V1C12.995 0.734784 12.8897 0.48043 12.7021 0.292893C12.5146 0.105357 12.2602 0 11.995 0C11.7298 0 11.4754 0.105357 11.2879 0.292893C11.1004 0.48043 10.995 0.734784 10.995 1V11C10.995 11.2652 11.1004 11.5196 11.2879 11.7071C11.4754 11.8946 11.7298 12 11.995 12C12.2602 12 12.5146 11.8946 12.7021 11.7071C12.8897 11.5196 12.995 11.2652 12.995 11V7H16.585L15.785 7.79C15.6913 7.88296 15.6169 7.99356 15.5661 8.11542C15.5154 8.23728 15.4892 8.36799 15.4892 8.5C15.4892 8.63201 15.5154 8.76272 15.5661 8.88458C15.6169 9.00644 15.6913 9.11704 15.785 9.21C15.878 9.30373 15.9886 9.37812 16.1104 9.42889C16.2323 9.47966 16.363 9.5058 16.495 9.5058C16.627 9.5058 16.7577 9.47966 16.8796 9.42889C17.0014 9.37812 17.1121 9.30373 17.205 9.21L19.705 6.71C19.7961 6.6149 19.8674 6.50275 19.915 6.38C20.015 6.13654 20.015 5.86346 19.915 5.62Z" fill="white"/>
</svg>
