<svg width="16" height="20" viewBox="0 0 16 20" fill="none" xmlns="http://www.w3.org/2000/svg">
<path d="M11.2899 14.2898L8.99989 16.5898V4.99994C8.99989 4.73473 8.89453 4.48037 8.707 4.29284C8.51947 4.10531 8.26512 3.99995 7.9999 3.99995C7.73469 3.99995 7.48034 4.10531 7.2928 4.29284C7.10527 4.48037 6.99991 4.73473 6.99991 4.99994V16.5898L4.70994 14.2898C4.52164 14.1015 4.26625 13.9957 3.99995 13.9957C3.73365 13.9957 3.47826 14.1015 3.28996 14.2898C3.10166 14.4781 2.99587 14.7335 2.99587 14.9998C2.99587 15.2661 3.10166 15.5215 3.28996 15.7098L7.28991 19.7098C7.38501 19.8008 7.49716 19.8722 7.61991 19.9198C7.73961 19.9727 7.86903 20 7.9999 20C8.13077 20 8.2602 19.9727 8.3799 19.9198C8.50265 19.8722 8.61479 19.8008 8.70989 19.7098L12.7098 15.7098C12.8981 15.5215 13.0039 15.2661 13.0039 14.9998C13.0039 14.7335 12.8981 14.4781 12.7098 14.2898C12.6166 14.1966 12.5059 14.1226 12.3841 14.0722C12.2623 14.0217 12.1317 13.9957 11.9999 13.9957C11.7336 13.9957 11.4782 14.1015 11.2899 14.2898ZM14.9998 0H0.999988C0.734775 0 0.480424 0.105356 0.29289 0.29289C0.105356 0.480424 0 0.734775 0 0.999988C0 1.2652 0.105356 1.51955 0.29289 1.70709C0.480424 1.89462 0.734775 1.99998 0.999988 1.99998H14.9998C15.265 1.99998 15.5194 1.89462 15.7069 1.70709C15.8944 1.51955 15.9998 1.2652 15.9998 0.999988C15.9998 0.734775 15.8944 0.480424 15.7069 0.29289C15.5194 0.105356 15.265 0 14.9998 0Z" fill="white"/>
</svg>
